<svg width="500pt" height="500pt" viewBox="0 0 500 500" version="1.1" xmlns="http://www.w3.org/2000/svg" fill="currentColor">
<path d=" M 200.35 71.54 C 219.53 63.94 240.59 61.44 261.07 63.46 C 287.33 65.74 312.54 77.13 331.99 94.85 C 351.14 111.83 365.88 134.21 371.92 159.23 C 378.11 184.88 376.75 212.52 367.12 237.17 C 356.16 264.68 335.79 288.63 309.70 302.84 C 296.20 310.21 281.31 314.91 266.12 317.17 C 266.12 329.65 266.11 342.13 266.12 354.61 C 279.75 354.63 293.38 354.57 307.00 354.64 C 309.43 354.48 311.78 356.60 311.78 359.05 C 311.90 368.04 311.80 377.05 311.83 386.05 C 312.17 388.80 309.86 391.61 307.00 391.37 C 293.37 391.43 279.75 391.38 266.12 391.39 C 266.10 404.95 266.14 418.51 266.11 432.07 C 266.23 434.76 263.89 437.34 261.10 437.07 C 252.04 437.09 242.98 437.12 233.92 437.05 C 231.17 437.25 229.06 434.63 229.16 432.02 C 229.13 418.50 229.12 404.97 229.17 391.45 C 215.43 391.27 201.69 391.53 187.96 391.32 C 185.28 391.28 183.53 388.54 183.75 386.04 C 183.79 377.00 183.66 367.96 183.82 358.93 C 183.91 356.33 186.44 354.31 188.98 354.62 C 202.37 354.58 215.75 354.62 229.14 354.61 C 229.14 342.13 229.14 329.65 229.15 317.18 C 202.28 313.34 176.46 301.10 157.46 281.56 C 137.15 261.13 123.32 233.93 120.56 205.11 C 117.33 176.25 123.63 146.09 139.80 121.79 C 154.53 99.68 175.56 81.42 200.35 71.54 M 238.06 100.11 C 229.51 100.99 221.05 102.95 213.10 106.25 C 195.31 113.55 180.41 127.01 170.00 143.04 C 157.55 162.43 154.16 186.70 158.35 209.14 C 161.41 225.55 169.57 240.83 181.10 252.85 C 194.06 266.83 211.31 276.99 230.16 280.34 C 252.44 284.42 276.42 280.75 295.61 268.41 C 313.33 256.93 327.84 239.84 334.40 219.61 C 340.14 201.74 340.33 182.12 335.10 164.10 C 329.13 143.41 314.65 125.94 297.02 113.95 C 279.83 102.42 258.51 98.15 238.06 100.11 Z" />
</svg>