<svg width="50" height="50" viewBox="0 0 500 500" version="1.1" xmlns="http://www.w3.org/2000/svg" fill="currentColor">
<path d=" M 332.00 110.87 C 331.94 108.29 334.47 106.30 336.95 106.51 C 364.94 106.47 392.93 106.47 420.93 106.51 C 423.84 106.26 426.33 109.02 425.93 111.89 C 425.93 139.62 425.94 167.35 425.93 195.07 C 426.31 197.88 423.84 200.56 421.00 200.35 C 412.00 200.38 402.99 200.40 393.99 200.35 C 391.58 200.54 389.17 198.49 389.22 196.02 C 389.09 187.00 389.16 177.96 389.19 168.93 C 376.26 182.20 363.00 195.15 349.92 208.28 C 365.53 229.20 374.80 254.86 375.26 281.02 C 376.19 306.67 369.51 332.71 355.17 354.11 C 341.05 375.16 321.25 392.67 297.95 402.89 C 272.62 413.84 243.72 415.79 216.92 409.59 C 191.24 403.75 168.25 388.68 150.95 369.03 C 131.20 347.32 119.78 318.38 119.33 289.03 C 118.39 263.03 125.38 236.63 140.16 215.11 C 156.71 190.95 180.87 171.43 209.10 162.86 C 230.38 156.38 253.32 155.61 275.07 160.16 C 292.75 163.88 309.50 171.69 323.96 182.48 C 337.05 169.43 350.09 156.33 363.21 143.31 C 354.48 143.24 345.76 143.33 337.03 143.28 C 334.52 143.55 331.97 141.60 332.00 138.99 C 331.87 129.62 331.88 120.24 332.00 110.87 M 233.66 194.88 C 206.86 198.27 183.29 215.62 169.10 238.16 C 159.51 253.51 155.46 271.90 156.46 289.89 C 157.07 309.97 164.97 329.70 178.40 344.66 C 192.93 361.56 213.60 373.45 235.93 375.73 C 257.00 378.34 279.14 373.78 296.82 361.81 C 313.97 350.14 327.94 333.18 334.26 313.26 C 339.91 295.23 339.96 275.49 334.47 257.41 C 328.01 236.54 313.19 218.82 294.93 207.12 C 276.91 195.66 254.64 191.97 233.66 194.88 Z" />
</svg>