<?xml version="1.0" encoding="utf-8"?>
<!-- Generator: Adobe Illustrator 27.0.0, SVG Export Plug-In . SVG Version: 6.00 Build 0)  -->
<svg version="1.1" id="Layer_2_00000147190114143231181850000016775787219133373061_"
	 xmlns="http://www.w3.org/2000/svg" xmlns:xlink="http://www.w3.org/1999/xlink" x="0px" y="0px" viewBox="0 0 2044 1022"
	 style="enable-background:new 0 0 2044 1022;" xml:space="preserve">
<style type="text/css">
	.st0{fill:#FFFFFF;}
	.st1{fill:none;stroke:#6E6F75;stroke-width:5;stroke-linecap:round;stroke-miterlimit:10;}
	.st2{fill:none;stroke:#6E6F75;stroke-width:5;stroke-linecap:round;stroke-linejoin:round;}
</style>
<g id="Layer_1-2">
	<polygon class="st0" points="1962.4,715.1 1967.7,725.4 1968.4,741.4 1971.9,742.8 1983.2,734.1 1984.6,727.9 1981.7,721 
		1975.9,714.6 1969.1,712.3 	"/>
	<polygon class="st0" points="1952.8,743.8 1924.2,772 1924.2,776.5 1938.5,774.8 1950.6,766.7 1962.3,753.9 1962.3,746.6 
		1958.8,743.8 	"/>
	<polygon class="st0" points="1799.8,744.5 1799.8,752.7 1805,758.2 1809.2,758.2 1814,753.8 1814.4,744.5 1807.1,746.2 	"/>
	<path class="st0" d="M1631.6,689.6v18.3h20.1l8.7-6.7l12.4-4.2l10.2-0.9l12.3-8.1h26.5l13.3,9.9l6,5.9l5.6,1.8l5-2.3l7.1-2.3l5,5
		l2.3,10.9l4.2,8.4l9,5.1h23l17.3-0.5l6.1-4.8l2.3-8.6l1.4-4.5l7.5-8.6l7.7-13.2l3.5-13.6v-13.3l-7.5-11.3l-36.1-37l-2.1-10.9
		l-11.3-14.9l-6.8-5.8l-6.8,3.7v8.9l-2.4,7.4l-5.9,3l-7.5-6l-16.8-19.2l-14.5-2.2l-17.6,2.8l-9.1,6l-12,2.2c0,0-12.2,10.2-14.2,12.2
		s-18.3,17.2-18.3,17.2l-11.4,4.8l-13.3,1.7l-10.3,6.8l-5.6,12.6l1.3,11.8l4.7,6.6l-0.4,10.5l6.3,7L1631.6,689.6L1631.6,689.6z"/>
	<polygon class="st0" points="1725.1,308.3 1712.5,320.9 1712.5,326.3 1721.2,335 1729.1,335 1739,327.9 1743.4,323.9 1755.3,321.6 
		1765.7,321.6 1777.3,314.3 1783.3,306.5 1783.3,296.8 1785.3,275 1789,268.8 1789,261.8 1783.8,256.2 1777.4,258.4 1770.7,265.1 
		1765.4,268.6 1761.3,281.9 1761.3,291.3 1758.3,300.8 1750.8,306.6 1739.3,307.6 	"/>
	<polygon class="st0" points="1723.1,513.8 1722.8,521.2 1736.9,533.5 1743.5,535 1758.6,549.6 1758.6,557 1768.8,557.7 
		1777.5,561.3 1784.8,564.3 1795.2,558.6 1801,559.6 1813.3,569.9 1823.8,569.9 1825.6,564.4 1819.1,557.2 1811.7,548.8 
		1809.8,543.5 1802.1,543.3 1798.9,535.1 1793.5,528.8 1779.3,528.8 1769.8,524.7 1762.1,519.7 1752.4,522 1745.3,527.3 1738.4,524 
		1738.1,515.9 1736.2,512.6 1724.2,513.7 	"/>
	<polygon class="st0" points="1660.3,408.1 1660.3,434.9 1670,444.6 1669.6,471 1678.1,477 1690.9,474.4 1693.6,468 1691,459.5 
		1685.4,454.1 1681.3,442.5 1675,435.7 1670,429.2 1669.2,414.1 1667,405.7 	"/>
	<polygon class="st0" points="1660.3,511.8 1647.9,524.6 1648.9,539.1 1654.1,545.8 1660.3,542.4 1672.8,531.7 1672.5,517.5 
		1667.7,511.8 	"/>
	<polygon class="st0" points="1584.6,546.4 1580.6,553.7 1588.5,561.6 1651.7,561.6 1651.7,554 1622,554 1610.2,546.1 	"/>
	<polygon class="st0" points="1593.8,506.7 1593.8,521.7 1600.2,528 1631.4,528 1636.1,518.5 1641.6,514.1 1642.1,506.7 
		1646.7,503.1 1646.7,477 1639,471 1633.5,473.3 1611,497.4 1603.9,503.6 	"/>
	<polygon class="st0" points="1523.3,487.6 1537.3,504.3 1539.9,515.3 1566.9,543.5 1573.4,543.5 1576.5,538.3 1576.3,527.3 
		1574.1,523.7 1566.6,521.7 1526.7,483.9 	"/>
	<polygon class="st0" points="923.8,195.5 911.8,206.8 911.8,214.4 923.8,214.3 930.4,211 936,205 936.9,201.6 935.7,197.7 
		931.9,194.6 	"/>
	<polygon class="st0" points="939.8,172.2 939.8,184.7 942.4,191.4 947.8,199.9 946.6,206.2 939.8,215.8 939.2,218.9 950,218.9 
		972.5,218.9 978.5,212 978.1,205.4 973.3,199.7 945.3,172.2 	"/>
	<polygon class="st0" points="842.4,131.1 842.4,139.7 857,154.4 900.8,154.4 900.8,143 891.9,143 880,131.1 871.6,131.1 
		865.6,129.6 	"/>
	<polygon class="st0" points="625.6,55.2 625.6,65.8 617,67.5 609.7,77.1 614.1,91.1 629,103.4 700.4,174.6 717.3,181.7 
		730.7,180.3 742.9,172.9 757.6,158.6 772.9,149.6 794.4,145.4 812.3,141.9 827.8,131.6 849.7,109.7 863.2,94.8 865.6,82.3 
		859.3,69.5 848,61.1 830.7,55.6 	"/>
	<polygon class="st0" points="1249.1,582.3 1246.7,592.3 1233,604.9 1222.6,617 1220.3,636.8 1224.6,652.2 1231.8,656.5 
		1241.8,655.4 1245.7,649.9 1247,639.4 1249.1,619.4 1257.1,609 1262,602.1 1263.3,595.4 1263.3,583.9 1261.7,580.2 1256,577.5 	"/>
	<path class="st0" d="M937.4,316L884,369.4l-6.5,19.9l-0.4,26.1l3.4,25.7l13.9,19.1l22,20.3l45,2.2h57l8.4,9.2l1,22.8l2.1,21.3
		l12.9,18l5.3,7.8l1.3,19.2l-4.3,8.8l-1.4,10.2l0.8,15.6l6.1,9.5l4.6,10.9l1.1,13.2l5.9,8.5l1.9,9.6l1.5,4.8l5.3,6.1l1.2,7.5v15.4
		h37.8l15.7-3.3l11.7-10.2l21.2-22.1l1.1-9.1l2.2-2.5l7-2.1l5.7-7.6l2.3-14.2l3.2-9.3l10.7-11.9l11.2-12.4l4.1-12.3v-54l2.9-8.4
		l60.4-64.1l-7.8-11.8l-11.3-3.1l-11.6,7.3l-7.1,4l-17.6-16.2l-26.8-41.4l-24.4-47.9l14.6,14.6l20.7,25.3l25.6,41.1l8,6.6l16-7.2
		l52.3-26.7l2.4-8.3l6.7-8.7l-3.1-8.2l-5.7-1.5l-3.4-7l-7.4-0.8l-8,6l-9.6,2.5l-9.2-8.2l-11.9-21.5l1.1-4.3l5.4-0.6l8.9,8.8
		l10.3,10.3h70l12.3,6.8l13.7,13.5l11.7,12.3l1.8,8.7l3.6,6.6l2.8,4.3l0.8,8.6l0.2,4.5l5.7,9.6l2.3,12.5l4.9,8.7l4.5,3.9l5-0.1
		l13.4-15.1l2.2-20.5l34.7-34.7l9.9-4.8l19.7,1.9l8.4,11.5l8.1,12l1.4,8.3l12.4,2.7l6.4,8.2v31.5l7.2,11.1l6.2,9.1l2.9,10l12.4,9.7
		l4.5-3l-3.2-7.3l-1.1-7.4l-9.4-10.8l-4-5.6l-2.3-6.7l-5.4-6.9l0.8-18l5.3-1.3l9.1,6.8l18.6,16.8l7.1-2.1l12.3-12.4l4-10.7l-1.3-6.5
		l-18.4-20.8l1.4-6.2l9.7-9.7l4.7-1.8l3.8,4.6l-2.6,6l-6,7l3.6,3.3l8.6-3.3l6.1-7.4l1.3-6.5l8.1-3.5l9.8-5l10.3-1.5l26.9-25.7
		l7.3-10.7l0.2-13.8l-9.8-12.8l-4.9-9.2l6.8-9.5l-6.6-12.3l4.1-7l8.2,2.5l6.3,5.1l7,3.2l2.8,6.1l6.6,2.3l1.1,6.7l-3.7,5.2l1.8,4.3
		l9.6-0.6l7.7-6.6l1.6-10.9l-6.1-11.2l2.5-7.5l8.2-6.2l11.5-1.9l13.4-6.1l15.8-15.7l12.6-14l1.9-7.2l2.2-6.1h8.1l2.2,7.1v15.1
		l3.6,1.9l4.1-3v-7.2l7.2,0.7v-26.1l-5.5-8l-14.3-4.4h-13.3l-2.2-5.1l5-7.4l13.1-11.2l20.3-1.5l51.7-0.8l12.6-8l26.7-0.4l1.4,3.4
		l-7.9,7.9l-6.7,3.8l-7.6-0.2l-9.3,10.8l-3.6,8.8l0.3,16.1l7.3,5.3l10.1-1.4l22.1-24.6l6.3-10.6v-6l10.1-2.7l9.9-5.7l15.5-0.3
		l8.4-0.8l7.6-6.4l14.2-1.2l6.3-3.1h6.7l12-12.7v-25.3c0,0-63.3-1.2-64.2-1.2h-23.3l-13.9-10.5h-43.7L1833,96.7h-57l-16,10.3
		l-44.7-2.1l1.1-6.2l-114.5-1.8l-3.6-6.1l5.3-4l15,1.1l4.1-8.1l-8-4.8h-183.3v15.3l-3.6,7.1l-17.3,4.4l-35.1-0.9l-10.6,2.4
		l-16.5,16.1h-116.8l-13.3,7.6l-16.4,16l-20.9,1.6l-10.8-2.5l-33.2-31.8l-29.5-1.6l-29.8,3.6L1061,126l-18.2,17.3l-14.6,4.5
		l-15.5,1.1l-6.3,10.7l-0.1,13.3l4.4,6.2l11.3,0.6l12.7-1.1l4.4-2.1l7.8,7.4l8.7,4.7l5.6-0.9l8-5.8l8.9-12l-3.1-7.3l2.2-8.4
		l23.8-20.3l8.2,1.8l2.4,7.3l-5.6,7.3l-6.9,7.8l3.8,5.8l-4.2,7.8l9.3,2.2v5.3l-13.3,2.7l-0.2,10l-10,10.7l-9.1,3.8l-27.1-2l-1.1-6.2
		l-3.7-5.5l-7-5.5l-14.5,1.4l-2.2,9.6l-3.8,4l-5.3,2.2l-9.7,2.3l-8.1,7.2l-14.3,13.3l-15.9,3.1l-8,3.9l-5.9,1.4l-0.1,4.8l12,3.3
		l6.5,9.5l-3.4,11.9h-39.9v28.1l9.5,3.3l8.7,6.4l12.9-4l9.6-2l14.1-18.7l12.3-13.3l11.8-2.3l30.4,2.3l20,13l8,7.1l-0.4,10.7l15.8-16
		l-12.4-5.8l-15.8-19.1l4-1.8l10.4,10.7l10.4,2.7l7.8,5.1l6.4,13.3l2.9,7.1l4.2,7.8l4.4,2.7l9.8-3.3l1.8-7.1l-3.3-9.6l2.7-6l9.6-1.1
		l4.9,6.9l1.1,7.3l2.4,1.6l1.3,13.3l16.4-0.4l2.9-4.7l9.8,6l8.9-2.4c0,0,3.8-1.8,4.2-2s5.8,1.8,5.8,1.8l3.3,6.9l-4,14.9l-8.2,7.8
		l-41.1,1.1l-16-3.6c0,0-9.3-2.6-10.4-2.6s-12.2,2.8-12.2,2.8l-3.3,9.1l-18.7-2.9l-35.8-31.6l-16.3-3.7l-13.7,9.3
		c0,0-20.7,1.1-22.4,1.1s-35.1,1.8-35.1,1.8L937.4,316L937.4,316z"/>
	<polygon class="st0" points="560.4,397.5 553.1,406.6 560.4,408.7 581.7,408.7 581.7,405.6 576.8,399.4 	"/>
	<polygon class="st0" points="589.7,403.1 591.1,408.3 603.7,408.3 608.1,403.8 	"/>
	<polygon class="st0" points="494.3,379.1 494.3,386.3 521.5,386.3 533.7,398.6 536.7,398.6 540.9,394.4 537,390.5 524.8,378.3 	"/>
	<polygon class="st0" points="643.1,215.8 628.3,230.6 630.6,236.6 635.7,238.2 661.8,238.2 665.8,234.2 665.8,227 660.9,223.9 
		650,223.9 647.1,219.9 647.1,216.5 	"/>
	<polyline class="st0" points="8.7,114 273.3,114 284.4,115.9 297.5,124 314.3,133.2 435.3,133.2 449.5,121.5 456.6,120.4 
		471.7,132.1 475.2,141.9 445.6,176.5 447.5,187.7 459.3,190.6 522.4,190.6 553.1,162.9 558.5,162.9 568.3,170.4 585.4,185.6 
		591.2,184.7 595.3,178.5 597.4,172.2 602.5,169.5 609.3,171.8 622.2,184.7 632.7,196.1 634.7,204.6 632.4,211.9 620.2,224.7 
		604.2,240.7 601.1,244.6 603.8,246.6 612.7,248.2 615.2,251.7 616,256.6 616,268.6 578.4,268.6 561.4,283.5 535.5,309.4 
		516.3,328.6 516.7,335.7 519.8,340.8 530.8,350.9 531.2,356.2 527,361.1 519.6,366.8 513.3,364.6 500.2,350.1 485.1,340.6 
		460.7,340.8 430.2,340.8 422.3,345.7 418.9,351.2 417.7,366.8 417.7,386.8 420.9,397.8 428.2,402.6 436.4,405.6 447.4,402.6 
		456.4,394.7 465.6,389.4 472.6,388.5 479,395.9 480.2,403.1 473.6,409.5 470.2,417 475.5,426 522.6,473.1 541.3,454.5 553.1,448.9 
		608.7,448.9 627.7,448.9 641.1,455 654.1,468 702.4,516.3 709.7,520.6 718.1,523 762.4,523 770.2,528.2 772.9,538.8 772.9,582.8 
		768.2,596.4 757.7,610.5 673.2,695.1 604.6,763.6 589.6,778.7 587.2,786.7 587.2,801.5 587.2,806.6 602.2,819.7 599.8,826.6 
		548.5,826.6 548.5,743 548.5,735.9 554.7,723.7 567.1,710.6 569.9,701 569.9,619.7 566.2,609 535.3,578.1 513.6,554.1 511.3,534.3 
		510.7,485.9 448.4,426.3 436.5,419.8 417.7,415.9 401.2,416.8 388.7,411.9 354.1,377.8 283.1,306.3 269.1,287.2 267.1,272.1 
		264.4,252.3 258,234.6 249.1,223.7 237.3,211.9 227.5,209 220.1,207 214.7,199.9 201.8,187 185.8,178.1 142.4,177.4 98.2,177.4 
		80,184.7 49.1,214.8 41.1,217.4 33.8,213.7 31.4,205 37.1,197 48.7,184.7 56.2,175 58.9,165.2 57.6,153.4 52,138.1 52,115.4 	"/>
	<path class="st1" d="M911.8,154.1h-50.1c-2.9,0-5.6-1.1-7.6-3.2l-9.2-9.2c-1.6-1.6-2.4-3.7-2.4-5.9v-1.3c0-2.7,2.2-4.9,4.9-4.9
		h22.2c5.1,0,10,2,13.6,5.6l3.4,3.4c2.4,2.4,5.7,3.8,9.1,3.8h1.5c2.3,0,4.1,1.9,4.1,4.1l0,0"/>
	<path class="st1" d="M921.5,197l-9.3,9.3c-3,3-0.9,8.1,3.3,8.1h6.6c3.1,0,6.1-1.2,8.3-3.4l4.4-4.4c1.3-1.3,2.1-3.1,2.1-5l0,0
		c0-4.1-3.3-7.4-7.4-7.4h-1.2C925.8,194.2,923.3,195.2,921.5,197L921.5,197z"/>
	<path class="st1" d="M642.6,216.8l-12.1,12.1c-3.4,3.4-1,9.3,3.9,9.3H658c4.1,0,7.3-3.3,7.3-7.3l0,0c0-4.1-3.3-7.3-7.3-7.3h-5.3
		c-2.4,0-4.4-1.9-4.4-4.4l0,0c0-1.9-1.5-3.4-3.4-3.4l0,0C644.1,215.8,643.3,216.2,642.6,216.8L642.6,216.8z"/>
	<path class="st1" d="M8.7,114h264.7c9.1,0,17.8,3.6,24.2,10c6.5,6.4,15.1,10,24.2,10h109.1c3.2,0,6.3-1.3,8.6-3.6l6.6-6.6
		c4.8-4.8,12.5-4.8,17.2,0l8.2,8.2c4.8,4.8,4.8,12.6,0,17.4l-24.1,24.1c-3.9,3.9-3.9,10.2-0.1,14.1c1.9,2,4.6,2.9,7.3,2.9H518
		c3,0,5.9-1.2,8-3.3l21.5-21.5c4.4-4.4,11.7-4.4,16.1,0l17.6,17.6c5.2,5.2,14,1.5,14-5.8l0,0c0-7.3,8.8-10.9,14-5.8l20.8,20.8
		c6.1,6.1,6.1,16,0,22.1L603,242c-1.8,1.8-0.5,5,2.1,5h3.8c3.7,0,6.6,3,6.6,6.6v1.9"/>
	<path class="st1" d="M764.8,269.1h-160l-18.8-0.5c-6.2,0-12.2,2.5-16.6,6.9l-51.2,51.2c-3.2,3.2-3.2,8.3,0,11.4l11.6,11.6
		c2.4,2.4,2.4,6.2,0,8.6l-6.9,6.9c-2.4,2.4-6.2,2.4-8.6,0l-16.6-16.6c-5.4-5.4-12.7-8.4-20.4-8.4h-42.4c-9.6,0-17.4,7.8-17.4,17.4
		v30.3c0,9.6,7.8,17.4,17.4,17.4h2.7c5.3,0,10.4-2.1,14.1-5.9l8.3-8.3c4.5-4.5,11.7-4.4,16.1,0.2c4.3,4.5,4,11.7-0.4,16.1l-3,3
		c-3.6,3.6-3.6,9.5,0,13.2l49.7,49.7l17.6-17.6c4.4-4.4,10.4-6.9,16.7-6.9h64.8c8.6,0,16.9,3.4,23,9.5l56.9,56.9
		c5.3,5.3,12.4,8.2,19.8,8.2H760c7.1,0,12.9,5.8,12.9,12.9v39.6c0,12.6-5,24.7-13.9,33.6L594.1,774.1c-4.9,4.9-7.6,11.5-7.6,18.4
		v8.9c0,6.3,10,12.3,14.4,16.7l0.6,0.6c2.9,2.9,0.8,7.8-3.2,7.8h-31.4"/>
	<path class="st1" d="M626.9,65.8H624c-14.4,0-20.1,18.7-8.1,26.7c4,2.7,7.1,4.9,8.4,6.2l73.9,73.9c12.4,12.4,32.6,12.4,45.1,0
		l10.2-10.2c10.9-10.9,25.6-17,41-17l0,0c12.5,0,24.6-5,33.4-13.8l31.4-31.4c8.5-8.5,8.5-22.2,0-30.7l0,0
		c-9.1-9.1-21.5-14.3-34.4-14.3H504.3"/>
	<path class="st1" d="M509.4,377.8l14.5,0.1c1.1,0,2.2,0.5,3,1.2l11.3,11.3c2.7,2.7,0.8,7.3-3,7.3h-0.4c-1.1,0-2.2-0.4-3-1.3
		l-8.9-8.9c-0.8-0.8-1.9-1.3-3-1.3h-22.6c-1.1,0-2.2-0.4-3-1.2l0,0c-2.7-2.7-0.8-7.3,3-7.3L509.4,377.8L509.4,377.8z"/>
	<path class="st1" d="M556.6,401.1l-2.7,2.7c-1.8,1.8-0.5,4.9,2,4.9h24.4c2.3,0,3.4-2.8,1.8-4.4l-3.4-3.4c-2.1-2.1-5-3.3-8-3.3h-5.6
		C562,397.5,558.9,398.8,556.6,401.1L556.6,401.1z"/>
	<path class="st2" d="M589.7,405.8L589.7,405.8c0,1.6,1.3,2.9,2.9,2.9h11.1l6.1-6.1l-17.2,0.3C591,403,589.7,404.3,589.7,405.8
		L589.7,405.8z"/>
	<path class="st2" d="M863.2,170.4l72.8,1.5c5.4,0,10.5,2.1,14.4,5.8l25.9,24.9c3,2.9,3,7.8,0,10.7l-1.8,1.8
		c-2.5,2.5-5.8,3.9-9.3,3.9h-26c-1.7,0-2.5-2-1.3-3.2l6.8-6.8c2-2,3.2-4.8,3.2-7.6l0,0c0-2.9-1.2-5.8-3.3-7.8l-3-2.8
		c-2.4-2.3-3.3-5.7-2.5-8.7"/>
	<path class="st2" d="M923.8,274.7v15.1c0,3.5,2.8,6.3,6.3,6.3h0.8c2,0,3.9,0.8,5.3,2.2l2.2,2.2c1.4,1.4,3.3,2.2,5.3,2.2h0.3
		c2,0,3.9-0.8,5.3-2.2l0,0c1.4-1.4,3.3-2.2,5.3-2.2h1.1c4,0,7.8-1.6,10.6-4.4l20.4-23.9c3.7-4.4,9.1-6.9,14.9-6.9h24.8
		c4.5,0,8.8,1.8,12,5l18.6,13.5c2.7,2,4.3,5.2,4,8.6s-1.1,6.8-1.1,6.8l12.6-12.6l3.7-3.7c0.7-0.7,0.2-2-0.8-2l0,0
		c-3.6,0-7-1.4-9.5-3.9l-16.7-16.7c-1.1-1.1-1.1-2.8,0-3.8l0,0c1.1-1.1,2.8-1.1,3.8,0l8.6,8.6c2.5,2.5,5.9,3.9,9.4,3.9l0,0
		c2.5,0,4.8,1,6.6,2.7l4.7,4.7c2.3,2.3,3.7,5.5,3.7,8.9l0,0c0,2.7,1.1,5.3,3,7.3l1.4,1.4c2.2,2.2,3.5,5.3,3.5,8.4v2.4h5
		c4,0,7.8-1.6,10.6-4.4l0,0c3-3,3-7.7,0-10.7l-0.6-0.6c-2.5-2.5-2.5-6.5,0-8.9l0,0c1.8-1.8,4.1-2.7,6.6-2.7h0.8
		c4.1,0,7.4,3.3,7.4,7.4v4.7c0,1.3,1,2.3,2.3,2.3l0,0c1.3,0,2.3,1,2.3,2.3v10c0,1.6,1.3,3,3,3h12.5c1.2,0,2.2-1,2.2-2.2l0,0
		c0-1.2,1-2.2,2.2-2.2h3.1c0.6,0,1.2,0.2,1.6,0.7l3.9,3.9c0.4,0.4,1,0.7,1.6,0.7h6.6l2.5-2.5c1.2-1.2,2.9-1.9,4.6-1.9l0,0
		c3.6,0,6.5,2.9,6.5,6.5v5v3c0,5.4-2.1,10.5-5.9,14.4l0,0c-2.2,2.2-5.1,3.4-8.1,3.4h-43.8c-2.6,0-5.1-1-7-2.9l0,0
		c-1.8-1.8-4.4-2.9-7-2.9h-11.4c-3.2,0-5.8,2.6-5.8,5.8l0,0c0,3.2-2.6,5.8-5.8,5.8h-3.1c-8.8,0-17.2-3.5-23.4-9.7l-24-24
		c-3-3-7.2-4.7-11.5-4.7h-3c-4.3,0-8.4,1.7-11.5,4.7l-2.1,2.1c-2.6,2.6-6.2,4.1-10,4.1h-41.6c-8.1,0-15.9,3.2-21.7,9l-40.2,40.2
		c-9.4,9.4-14.6,22.1-14.6,35.3v27.7c0,12.4,4.9,24.2,13.6,32.9l19.7,19.7c4.1,4.1,9.8,6.5,15.6,6.5h87.3c7.9,0,14.4,6.4,14.4,14.4
		v19.8c0,14.2,5.7,27.9,15.7,38l0,0c3.8,3.8,5.9,8.9,5.9,14.3v11.9c0,2.6-1,5.1-2.9,6.9l0,0c-1.8,1.8-2.9,4.3-2.9,6.9v15.1
		c0,5.2,2.1,10.3,5.8,14l0,0c3.7,3.7,5.8,8.7,5.8,14v5.9c0,4,1.6,7.8,4.4,10.6l0,0c2.8,2.8,4.4,6.6,4.4,10.6v5.6l5.2,5.2
		c1.3,1.3,2,3.1,2,4.9l0,0c0,1.8,0.7,3.6,2,4.9l0,0"/>
	<path class="st2" d="M1431.4,87.9c0,7-5.7,12.7-12.7,12.7h-45.5c-3.8,0-7.3,1.5-10,4.1l-11.1,11.1c-2.1,2.1-5,3.3-8.1,3.3h-109.2
		c-5.7,0-11.1,2.3-15.1,6.3l-14.3,14.3c-3.1,3.1-7.4,4.9-11.8,4.9h-15.5c-3.8,0-7.5-1.5-10.1-4.2l-27.2-27.2
		c-2.9-2.9-6.8-4.5-10.9-4.5h-36.8c-9.4,0-18.4,3.7-25.1,10.3l-21.6,21.3c-4.8,4.8-11.4,7.5-18.2,7.5h-5.8
		c-9.3,0-16.8,7.5-16.8,16.8v5.2c0,5.5,4.4,9.9,9.9,9.9h13.1c1.5,0,2.9-0.6,4-1.7l0,0c2.2-2.2,5.8-2.2,8,0l7.9,7.9
		c4,4,10.6,4,14.6,0l13-13c2.1-2.1,2.1-5.5,0-7.6l0,0c-2.1-2.1-2.1-5.5,0-7.6l21.8-21.8c3.1-3.1,8.1-3.1,11.2,0l0,0
		c3.1,3.1,3.1,8.1,0,11.2l-7.8,7.8c-1.8,1.8-1.8,4.8,0,6.7l0.6,0.6c1.4,1.4,1.4,3.6,0,5l-1.9,1.9c-1.7,1.7-0.5,4.7,1.9,4.7h3.9
		c1.6,0,2.9,1.3,2.9,2.9l0,0c0,2.7-2.2,4.9-4.9,4.9h-5.8c-1.5,0-2.7,1.2-2.7,2.7v4.1c0,2.8-1.1,5.4-3,7.4l-5.4,5.4
		c-2.7,2.7-6.5,4.3-10.3,4.3h-24.1c-2.8,0-5-2.2-5-5l0,0c0-2.4-1-4.7-2.6-6.4l-4.5-4.5c-1.7-1.7-4-2.7-6.5-2.7h-6.9
		c-3.3,0-5.9,2.7-5.9,5.9l0,0c0,3.3-1.3,6.5-3.7,8.9l0,0c-2.4,2.4-5.5,3.7-8.9,3.7h-1.7c-3.3,0-6.5,1.3-8.9,3.7l-15.3,15.3
		c-3.3,3.3-7.7,5.1-12.3,5.1h-2.7c-3.5,0-6.8,1.4-9.3,3.9l0,0c-0.6,0.6-1.5,1-2.3,1h-3.9c-2.4,0-4.3,1.9-4.3,4.3l0,0
		c0,1.8,1.5,3.3,3.3,3.3h4.7c0.9,0,1.7,0.3,2.3,1l7.1,7.1c1.7,1.7,2.6,4,2.6,6.3l0,0c0,5-4,9-9,9h-59.5"/>
	<path class="st2" d="M2035.6,127h-29.2c-4.2,0-8.3-1.7-11.3-4.7l0,0c-3-3-7.1-4.7-11.3-4.7H1914c-5,0-9.8-2-13.4-5.5l0,0
		c-3.5-3.5-8.3-5.5-13.4-5.5h-34.5c-4.8,0-9.4-1.9-12.8-5.3l0,0c-3.4-3.4-8-5.3-12.8-5.3h-46.5c-4.7,0-9.2,1.9-12.6,5.2l0,0
		c-3.3,3.3-7.9,5.2-12.6,5.2h-37.9c-2.5,0-3.7-3-1.9-4.7l0,0c1.7-1.7,0.5-4.7-1.9-4.7h-111.3c-2.5,0-4.5-2-4.5-4.5l0,0
		c0-2.5,2-4.5,4.5-4.5h13.9c3.6,0,6.4-2.9,6.4-6.4l0,0c0-3.6-2.9-6.4-6.4-6.4h-497.6"/>
	<path class="st2" d="M936.8,701.2h175.8c7,0,13.7-2.8,18.7-7.7l25.5-25.5c1.2-1.2,1.9-2.8,1.9-4.5v-4.1c0-3.5,2.9-6.4,6.4-6.4l0,0
		c1.7,0,3.3-0.7,4.5-1.9l0,0c4.3-4.3,6.8-10.2,6.8-16.3v-1.1c0-6.8,2.7-13.4,7.6-18.2l13.4-13.4c5.5-5.5,8.6-13,8.6-20.8V534
		c0-7.6,3-14.8,8.3-20.2l53.2-53.2c2.5-2.5,2.5-6.4,0-8.9l-4.4-4.4c-2.8-2.8-6.5-4.3-10.4-4.3l0,0c-3.9,0-7.6,1.5-10.4,4.3l-3.7,3.7
		c-1.6,1.6-3.8,2.5-6,2.5l0,0c-2.5,0-5-1.1-6.6-3.1l-10.3-12.5c-13.9-16.7-25.7-35-35.5-54.4l-17.5-35c-0.3-0.7,0.5-1.2,1-0.7
		l18.3,20.6c11.1,12.5,21,26.1,29.5,40.5l14.1,23.8c1.8,3.1,5.7,4.3,9,2.7l62.4-30.8c3-1.5,4.9-4.5,4.9-7.8l0,0
		c0-2.3,0.9-4.5,2.6-6.2l3.2-3.2c1.2-1.2,1.9-2.9,1.9-4.6l0,0c0-3.6-2.9-6.5-6.5-6.5h-0.2c-2.4,0-4.4-2-4.4-4.4l0,0
		c0-2.6-2.1-4.7-4.7-4.7h-4.1c-1.3,0-2.5,0.5-3.4,1.4l-4.1,4.1c-2.2,2.2-5.1,3.4-8.2,3.4l0,0c-4.2,0-8-2.3-10.1-5.9l-12.7-22.6
		c-1-1.7-0.7-3.8,0.7-5.2l0,0c1.7-1.7,4.5-1.7,6.2,0l18.5,18.5h63.2c8,0,15.7,3.2,21.4,8.9l21,21c2.3,2.3,3.5,5.3,3.5,8.6l0,0
		c0,3.5,1.4,6.9,3.9,9.4l0,0c2.3,2.3,3.6,5.5,3.6,8.8v6.6c0,3.4,1.3,6.6,3.7,9.1l0,0c2.6,2.6,4.1,6.2,4.1,10v2.9
		c0,3.8,1.5,7.4,4.2,10.1l3.4,3.4c2.4,2.4,6.3,2.4,8.7,0l7.9-7.9c2.5-2.5,4-6,4-9.6v-10.3l0,0c0-3.6,1.4-7.1,4-9.6l7.7-7.7
		l20.8-20.8c4.5-4.5,10.6-7.1,17-7.1h14.2c2.1,0,3.9,1.7,3.9,3.9l0,0c0,1,0.4,2,1.1,2.7l10.3,10.3c2.5,2.5,3.9,5.8,3.9,9.3v3.2
		c0,3,2.4,5.4,5.4,5.4h4.3c2.7,0,5.4,1.1,7.3,3l0,0c1.9,1.9,3,4.6,3,7.3v8.3v17.7c0,5.2,2.1,10.2,5.8,13.9l3.3,3.3c2,2,3,4.6,3,7.4
		l0,0c0,2.3,0.9,4.6,2.6,6.2l12.4,12.4c1.2,1.2,3.2,1.2,4.5,0l0.6-0.6c1.2-1.2,1.2-3.2,0-4.5l0,0c-1.6-1.6-2.6-3.9-2.6-6.2v-2.1
		c0-1.9-0.8-3.7-2.1-5.1l-6.5-6.5c-1.3-1.3-2-3-2-4.8v-0.7c0-1.5-1.2-2.7-2.7-2.7l0,0c-1.5,0-2.7-1.2-2.7-2.7v-2.4
		c0-0.7-0.3-1.4-0.8-1.9l-3-3c-1.9-1.9-3-4.5-3-7.2V439c0-2.6,2.1-4.7,4.7-4.7l0,0c2.6,0,5,1,6.8,2.8l18.9,18.9c3,3,7.9,3,10.9,0
		l11.5-11.5c6.4-6.4,6.4-16.7,0-23.1l-13.6-13.6c-2.3-2.3-2.3-6.1,0-8.4l10.2-10.2c0.9-0.9,2.1-1.4,3.3-1.4l0,0
		c2.6,0,4.7,2.1,4.7,4.7v1.5c0,1.2-0.5,2.4-1.4,3.3l-6.6,6.6c-1.4,1.4-0.4,3.7,1.5,3.7h4.7c2.2,0,4.3-0.9,5.8-2.4l3.1-3.1
		c2.1-2.1,3.3-5,3.3-8.1l0,0c0-2.9,2.3-5.2,5.2-5.2l0,0c2.8,0,5.5-1.1,7.4-3.1l0,0c2-2,4.7-3.1,7.4-3.1h4.1c3.2,0,6.2-1.3,8.4-3.5
		l26-26c3.1-3.1,4.8-7.3,4.8-11.7V334c0-3.3-1.3-6.5-3.7-8.9l-10-10c-2.1-2.1-2.1-5.6,0-7.7l3.8-3.8c2.3-2.3,2.3-6.1,0-8.4l-2.9-2.9
		c-2.7-2.7-2.7-7,0-9.7l0.9-0.9c2.2-2.2,5.7-2.2,7.9,0l4.4,4.4c1.9,1.9,4.4,2.9,7.1,2.9l0,0c2.1,0,3.7,1.7,3.7,3.7l0,0
		c0,3.3,2.7,6.1,6.1,6.1l0,0c2.6,0,4.8,2.1,4.8,4.8l0,0c0,2.6-1,5.1-2.9,6.9l-1.3,1.3c-1.6,1.6-0.5,4.3,1.8,4.3h6.5
		c2.4,0,4.7-0.9,6.3-2.6l3.7-3.7c1.5-1.5,2.4-3.6,2.4-5.8v-4.5c0-3.3-1.3-6.5-3.7-8.9l-0.7-0.7c-2.7-2.7-2.7-7.1,0-9.8l2.8-2.8
		c3.7-3.7,8.7-5.8,13.9-5.8l0,0c7,0,13.7-2.8,18.6-7.7l23.3-23.3c3.6-3.6,5.6-8.5,5.6-13.5l0,0c0-3.4,2.8-6.2,6.2-6.2l0,0
		c3.4,0,6.2,2.8,6.2,6.2v15.7c0,2,1.6,3.6,3.6,3.6l0,0c1.6,0,2.8-1.3,2.8-2.8v-5.1c0-2.5,3-3.8,4.8-2l0,0c1.8,1.8,4.8,0.5,4.8-2
		v-16.1c0-10.2-8.3-18.5-18.5-18.5h-11.4c-2.1,0-4.2-0.9-5.4-2.7c-1.9-2.6-1.5-6.1,0.7-8.3l10.3-10.3c3.6-3.6,8.4-5.6,13.4-5.6h60.1
		c3.5,0,6.8-1.4,9.3-3.8l1.4-1.4c2.5-2.5,5.9-3.9,9.5-3.9h23.6c1.8,0,2.7,2.2,1.4,3.4l-7.7,7.7c-1.6,1.6-3.8,2.5-6.1,2.5h-1.4
		c-2.9,0-5.8,1.2-7.8,3.2l-7.3,7.3c-3.2,3.2-5,7.5-5,12v11.9c0,4.2,3.4,7.7,7.7,7.7h1.3c3.2,0,6.3-1.3,8.6-3.6l22.4-22.4
		c3.4-3.4,5.4-8.1,5.4-13l0,0c0-2.6,2.1-4.8,4.8-4.8h0.4c2.9,0,5.7-1.2,7.7-3.2l0,0c2.9-2.9,6.7-4.5,10.8-4.5h18.1
		c1.7,0,3.4-0.7,4.6-1.9l3.9-3.9c1.2-1.2,2.9-1.9,4.6-1.9h8.7c1.7,0,3.4-0.7,4.6-1.9l0,0c1.2-1.2,2.9-1.9,4.6-1.9h3.2
		c1.7,0,3.4-0.7,4.6-1.9l5.1-5.1c2.8-2.8,4.8-6.4,5.8-10.2"/>
	<path class="st2" d="M1777.4,258.4l-10.8,10.8c-3.4,3.4-5.3,7.9-5.3,12.7v9.4c0,4.3-1.7,8.5-4.8,11.5l0,0
		c-3.1,3.1-7.2,4.8-11.5,4.8h-16.8c-2.1,0-4.1,0.8-5.5,2.3l-6.8,6.8c-3.1,3.1-3.1,8,0,11.1l4.4,4.4c1.5,1.5,3.5,2.3,5.5,2.3h3.4
		c2.1,0,4.1-0.8,5.5-2.3l6.9-6.9c1.5-1.5,3.5-2.3,5.5-2.3h12.4c5.9,0,11.5-2.3,15.6-6.5l4.4-4.4c3.4-3.4,5.3-8,5.3-12.8v-21.1
		c0-3.3,1.3-6.4,3.6-8.8l0,0c3.6-3.6,2.8-9.7-1.5-12.3l0,0C1783.8,255.4,1779.9,255.9,1777.4,258.4L1777.4,258.4z"/>
	<path class="st2" d="M1220.3,627.8v14c0,8.1,6.6,14.7,14.7,14.7l0,0c3.2,0,6.3-1.3,8.5-3.5l0,0c2.3-2.3,3.5-5.3,3.5-8.5v-6.6v-8.1
		c0-6.7,2.7-13.2,7.4-18l3.4-3.4c3.5-3.5,5.4-8.2,5.4-13.1V585c0-4.1-3.3-7.3-7.3-7.3l0,0c-4.1,0-7.3,3.3-7.3,7.3l0,0
		c0,4.5-2,8.7-5.4,11.6l-13.4,11.1C1223.7,612.6,1220.3,620,1220.3,627.8L1220.3,627.8z"/>
	<path class="st2" d="M1646.7,707.9c3.6,0,7-1.4,9.5-3.9l1.3-1.3c3.6-3.6,8.4-5.6,13.4-5.6h7.1c3.8,0,7.4-1.5,10.1-4.2l1.3-1.3
		c2.6-2.6,6.2-4.1,10-4.1h17.8c4.7,0,9.3,1.9,12.7,5.2l10.8,10.8c3.1,3.1,8,3.1,11.1,0l0.8-0.8c2.4-2.4,6.3-2.4,8.7,0l0,0
		c3,3,4.7,7.1,4.7,11.3l0,0c0,9.4,7.6,17,17,17h32.4c7,0,12.7-5.7,12.7-12.7l0,0c0-3.4,1.3-6.6,3.7-9l1.6-1.6
		c9.5-9.5,14.8-22.3,14.8-35.7l0,0c0-7.9-3.1-15.4-8.7-20.9l-32.9-32.9c-2.1-2.1-3.3-5-3.3-7.9l0,0c0-5.5-2.2-10.7-6-14.6
		l-10.6-10.6c-3.1-3.1-8.3-0.9-8.3,3.4v9.9c0,4.5-3.6,8.1-8.1,8.1l0,0c-2.5,0-4.8-1.1-6.3-3.1l-13.8-17.5c-3.3-4.2-8.3-6.6-13.6-6.6
		h-13.9c-4.7,0-9.2,1.8-12.6,4.9l0,0c-3.4,3.2-7.9,4.9-12.6,4.9l0,0c-4,0-7.8,1.6-10.7,4.4l-23.1,22.7c-5.8,5.7-13.7,8.9-21.9,8.9
		l0,0c-12.8,0-23.2,10.4-23.2,23.2v4.6c0,2.1,0.8,4.2,2.4,5.7l0.1,0.1c1.6,1.6,2.4,3.7,2.4,5.9c0,1.6,0,3.5,0,5.3
		c0,3.7,1.4,7.2,4,9.8l0.1,0.1c2.6,2.6,4,6.1,4,9.8"/>
	<path class="st2" d="M1963.4,718.8l0.5,0.5c2.9,2.9,4.5,6.8,4.5,10.9v11.2c0,1.8,2.2,2.7,3.4,1.4l10.7-10.7
		c2.6-2.6,2.8-6.8,0.4-9.6l-5.3-6.2c-2.1-2.5-5.3-4-8.6-4h-3C1962.7,712.3,1961,716.4,1963.4,718.8L1963.4,718.8z"/>
	<path class="st2" d="M1811.4,744.4L1811.4,744.4c1.3-1.3,3.4-0.4,3.4,1.4v3.9c0,2.6-1,5-2.8,6.8l0,0c-2.7,2.7-7.2,2.7-9.9,0l0,0
		c-1.8-1.8-2.8-4.3-2.8-6.8v-3.9c0-1.8,2.2-2.7,3.4-1.4l0,0C1805.1,746.8,1809,746.8,1811.4,744.4z"/>
	<path class="st2" d="M1961.4,745.6L1961.4,745.6c2.6,2.6,2.6,6.8,0,9.4l-17.9,16.9c-2.2,2.2-5.1,3.4-8.2,3.4h-7.9
		c-2.8,0-4.3-3.4-2.3-5.5l25-24.2C1953.3,742.5,1958.3,742.4,1961.4,745.6L1961.4,745.6z"/>
	<path class="st2" d="M1524.2,489.7l10.8,11.2c2.2,2.3,3.5,5.4,3.5,8.7l0,0c0,3.3,1.3,6.5,3.7,8.8l23,23c2.6,2.6,6.8,2.6,9.4,0l0,0
		c1.2-1.2,1.9-2.9,1.9-4.7c0-2.1,0-5.1,0-7.8c0-3.8-3.1-6.8-6.8-6.8l0,0c-1.8,0-3.5-0.7-4.8-2l-35.9-35.2c-0.6-0.6-1.5-1-2.4-1l0,0
		C1523.7,483.9,1522.1,487.5,1524.2,489.7L1524.2,489.7z"/>
	<path class="st2" d="M1646.7,707.9h-208.6"/>
	<path class="st2" d="M548.5,882.6v-138c0-9.3,3.7-18.2,10.3-24.8l4.9-4.9c3.9-3.9,6.1-9.3,6.1-14.8v-75.6c0-7.6-3-14.8-8.3-20.1
		l-29.3-29.3l-12.7-12.7c-5.5-5.5-8.5-12.9-8.5-20.6V487l-57.6-56.2c-8.6-8.6-20.3-13.4-32.4-13.4h-16c-7.4,0-14.6-3-19.8-8.2
		l-102.7-103c-10.9-10.9-17-25.7-17-41.2l0,0c0-15.4-6.1-30.2-17-41.2L238,213.3c-2.8-2.8-6.5-4.3-10.4-4.3l0,0
		c-5.3,0-10.1-2.8-12.8-7.4c-1.6-2.8-3.6-5.5-6-7.8l-5.7-5.7c-6.9-6.9-16.2-10.8-26-10.8h-74c-6.5,0-12.7,1.6-18.4,4.5
		c-3.5,1.8-6.8,4.2-9.7,7.1l-25.3,25.3c-4.3,4.3-11.2,4.2-15.4-0.1c-4.1-4.3-3.8-11.1,0.4-15.3l12.7-12.7
		c8.2-8.2,15.1-20.4,10.1-30.2c-3.5-6.8-5-14.4-5-22v-0.7"/>
	<path class="st1" d="M1633.5,473.3l-27,27c-1.5,1.5-3.6,2.4-5.7,2.4l0,0c-4.5,0-8.1,3.6-8.1,8.1v7.3c0,6.4,5.2,11.6,11.6,11.6h21.7
		c5.4,0,9.8-4.4,9.8-9.8l0,0c0-1.6,1.3-2.9,2.9-2.9l0,0c1.6,0,2.9-1.3,2.9-2.9v-5.9c0-1.4,1.1-2.6,2.6-2.6l0,0
		c1.4,0,2.6-1.1,2.6-2.6v-24.4c0-4.3-3.4-7.7-7.7-7.7l0,0C1636.9,471,1635,471.8,1633.5,473.3L1633.5,473.3z"/>
	<path class="st1" d="M1582.4,547.8L1582.4,547.8c-2.4,2.4-2.4,6.4,0,8.8l3.1,3.1c1.2,1.2,2.7,1.8,4.4,1.8h57.3
		c2.4,0,4.3-1.9,4.3-4.3l0,0c0-2.4-1.9-4.3-4.3-4.3h-22.6c-3.2,0-6.3-1.3-8.5-3.5l0,0c-2.3-2.3-5.4-3.6-8.7-3.5l-20.7,0.2
		C1585.2,546,1583.6,546.7,1582.4,547.8L1582.4,547.8z"/>
	<path class="st1" d="M1722.8,521.2l10.1,10.1c1.7,1.7,3.9,2.6,6.3,2.6l0,0c2.4,0,4.6,0.9,6.3,2.6l13.1,13.1c1,1,1,2.7,0,3.7l0,0
		c-1.7,1.7-0.5,4.5,1.9,4.5h8.4c3.2,0,6.3,1.3,8.6,3.6l0,0c1.9,1.9,4.6,3,7.3,3l0,0c2.7,0,5.4-1.1,7.3-3l1.7-1.7c2-2,5.3-2,7.3,0
		l6.8,6.8c2.8,2.8,6.6,4.3,10.5,4.3h2.6c4.3,0,6.5-5.2,3.4-8.3l-11.4-11.4c-1-1-1.5-2.3-1.5-3.6v-0.1c0-3-2.4-5.4-5.4-5.3
		c-1,0-1.9,0-2.8,0c-2.2,0-4-1.8-4-4v-0.2c0-2.7-1-5.2-2.9-7l-0.1-0.1c-1.9-1.9-4.5-3-7.2-3h-9.7c-4.2,0-8.2-1.6-11.2-4.6
		c-0.2-0.2-0.3-0.3-0.5-0.5c-2.3-2.2-5.3-3.5-8.5-3.5c-0.1,0-0.1,0-0.2,0c-3.4,0-6.6,1.3-9,3.7c-1.2,1.2-2.4,2.4-3.3,3.3
		c-0.9,0.9-2.2,1.4-3.5,1.4l0,0c-2.7,0-4.9-2.2-4.9-4.9V517c0-3.2-2.6-5.9-5.9-5.9h-5.4c-3.2,0-5.9,2.6-5.9,5.9l0,0
		C1721.1,518.6,1721.7,520.1,1722.8,521.2L1722.8,521.2z"/>
	<path class="st1" d="M1429.4,460.3v16c0,2.4,1.9,4.3,4.3,4.3l0,0c2.4,0,4.3-1.9,4.3-4.3V472c0-2-0.7-4-1.9-5.6l-5.2-6.6
		C1430.4,459.2,1429.4,459.6,1429.4,460.3L1429.4,460.3z"/>
	<path class="st1" d="M1657.2,514.2l-7.3,8.9c-1.2,1.5-1.9,3.4-1.9,5.3v6.9c0,4.6,3.7,8.3,8.3,8.3l0,0c2.2,0,4.3-0.9,5.9-2.4
		l8.2-8.2c1.6-1.6,2.4-3.7,2.4-5.9v-7.5c0-4.6-3.7-8.3-8.3-8.3h-0.9C1661.1,511.2,1658.7,512.3,1657.2,514.2L1657.2,514.2z"/>
	<path class="st1" d="M1659.7,410.5V430c0,3.3,1.3,6.4,3.6,8.7l2.1,2.1c2.4,2.4,3.8,5.7,3.8,9.1V468c0,5,4,9,9,9h6.5c5,0,9-4,9-9
		l0,0c0-4-1.6-7.9-4.5-10.8l-4.4-4.4c-1.9-1.9-3-4.6-3-7.3l0,0c0-2.7-1.1-5.4-3-7.3l-5.9-5.9c-2.3-2.3-3.6-5.4-3.6-8.7v-13.1
		c0-2.6-2.1-4.8-4.8-4.8l0,0C1661.8,405.7,1659.7,407.9,1659.7,410.5L1659.7,410.5z"/>
	<path class="st2" d="M1661.8,368.4l-4,4c-2.7,2.7-2.7,7,0,9.7l0.5,0.5c1.6,1.6,4.3,0.6,4.5-1.6l1.1-11.6
		C1664,368.3,1662.6,367.6,1661.8,368.4L1661.8,368.4z"/>
</g>
</svg>
