
<svg width="335pt" height="256pt" viewBox="0 0 335 256" version="1.1" xmlns="http://www.w3.org/2000/svg" fill="currentColor">

<path d=" M 143.26 48.04 C 151.73 44.39 161.77 47.65 168.08 53.93 C 172.47 58.12 174.63 64.08 175.39 69.98 C 175.31 77.37 172.58 84.96 166.80 89.81 C 157.31 98.66 140.79 97.22 132.45 87.46 C 127.34 81.47 125.07 72.87 127.29 65.23 C 129.11 57.23 135.61 50.70 143.26 48.04 Z" />
<path d=" M 179.60 84.91 C 187.12 80.40 197.63 81.90 203.39 88.60 C 219.86 108.44 236.10 128.48 252.51 148.38 C 256.70 154.35 262.37 159.38 265.23 166.19 C 265.94 171.10 266.43 176.77 263.07 180.88 C 256.11 190.40 246.44 199.66 234.05 200.48 C 179.02 200.53 123.98 200.46 68.95 200.50 C 62.62 200.55 55.60 197.89 52.58 191.98 C 52.24 187.39 51.18 181.61 55.40 178.42 C 58.99 174.96 64.20 174.10 68.95 173.59 C 111.61 173.52 154.26 173.63 196.91 173.55 C 198.75 173.82 201.27 172.16 200.50 170.11 C 198.92 167.59 196.79 165.49 194.97 163.15 C 187.26 154.14 180.31 144.48 172.15 135.86 C 168.08 137.16 164.49 139.51 160.74 141.47 C 145.38 149.32 130.68 158.41 115.09 165.82 C 111.44 167.66 107.24 167.84 103.25 167.31 C 96.81 165.13 92.54 157.50 95.01 150.96 C 97.06 146.52 101.10 143.42 105.23 141.03 C 120.12 132.93 134.82 124.48 149.86 116.66 C 153.05 114.72 157.58 113.32 158.17 109.04 C 159.50 103.53 162.25 98.31 166.62 94.62 C 170.74 91.13 174.97 87.70 179.60 84.91 Z" />

</svg>
