<svg width="266pt" height="188pt" viewBox="0 0 266 188" version="1.1" xmlns="http://www.w3.org/2000/svg" fill="currentColor">
<path opacity="1.00" d=" M 0.00 0.00 L 0.06 0.00 C 0.05 0.01 0.02 0.04 0.00 0.06 L 0.00 0.00 Z" />
<path opacity="1.00" d=" M 62.39 40.50 C 65.26 36.51 67.28 31.78 71.07 28.52 C 78.93 33.34 86.41 38.78 94.18 43.77 C 95.85 44.76 97.34 46.01 98.52 47.56 C 95.48 51.59 92.96 56.01 89.74 59.89 C 86.76 60.80 84.35 57.45 81.78 56.32 C 80.94 57.51 78.65 58.85 79.59 60.50 C 91.02 67.89 102.98 74.44 114.71 81.34 C 116.34 82.20 118.01 83.40 119.95 83.22 C 126.26 82.51 132.60 81.39 138.97 82.07 C 144.17 81.83 150.00 85.11 154.58 81.48 C 166.32 74.51 178.26 67.84 189.87 60.66 C 190.71 58.77 188.19 57.64 187.28 56.32 C 185.20 57.74 183.16 59.23 180.93 60.40 C 179.25 60.40 178.38 58.66 177.44 57.53 C 175.33 54.00 172.37 50.96 171.04 47.00 C 173.89 44.11 177.49 42.19 180.78 39.89 C 186.57 36.11 192.12 31.96 198.07 28.43 C 201.80 31.71 203.91 36.35 206.80 40.32 C 208.56 43.95 203.07 45.15 201.01 46.98 C 201.34 48.48 201.95 49.90 202.92 51.10 C 207.68 57.90 212.13 64.91 216.95 71.67 C 219.46 69.90 222.19 67.39 225.54 68.37 C 228.69 71.90 231.05 76.05 233.53 80.06 C 231.12 84.18 226.29 85.75 222.73 88.65 C 217.36 91.90 212.59 96.23 206.86 98.81 C 204.12 98.33 203.18 95.21 201.67 93.26 C 200.39 90.57 197.01 88.48 197.83 85.16 C 199.66 83.18 202.16 81.98 204.12 80.13 C 203.22 79.07 202.31 78.01 201.40 76.96 C 187.15 87.30 172.49 97.53 161.02 111.05 C 159.42 112.61 159.24 114.93 159.25 117.04 C 159.26 127.01 159.21 136.99 159.26 146.96 C 159.34 149.07 158.81 151.13 158.32 153.16 C 154.45 154.92 150.15 154.30 146.04 154.40 C 135.70 154.32 125.36 154.56 115.02 154.27 C 112.14 154.42 110.01 151.75 110.04 149.02 C 109.81 138.02 110.06 127.01 109.97 116.01 C 110.02 113.86 109.28 111.75 107.81 110.17 C 96.22 97.10 81.76 87.12 67.86 76.72 C 66.93 77.84 66.03 78.97 65.13 80.11 C 67.06 82.38 70.51 83.22 71.64 86.11 C 70.75 90.14 67.29 92.89 65.42 96.46 C 64.37 98.80 61.38 99.06 59.52 97.53 C 52.71 93.03 45.95 88.43 39.20 83.83 C 38.02 82.98 36.75 82.15 35.96 80.90 C 35.65 79.56 36.66 78.44 37.23 77.34 C 39.42 74.02 41.76 70.79 43.98 67.48 C 47.18 67.65 49.48 70.12 52.13 71.62 C 56.62 65.87 60.38 59.60 64.57 53.63 C 65.98 51.61 67.42 49.58 68.39 47.29 C 66.26 45.29 61.39 44.24 62.39 40.50 Z" />
<path opacity="1.00" d=" M 127.47 32.90 C 134.22 30.46 142.16 31.76 147.76 36.25 C 154.53 41.24 157.93 50.51 155.44 58.63 C 152.64 70.08 138.87 78.33 127.70 73.37 C 121.61 71.49 116.54 66.55 114.53 60.49 C 109.80 49.87 116.71 36.49 127.47 32.90 Z" />
</svg>
